# AST/ASF file generated using VICON BodyLanguage
# -----------------------------------------------
:version 1.10
:name VICON
:units
  mass 1.0
  length 0.45
  angle deg
:documentation
   .ast/.asf automatically generated from VICON data using
   VICON BodyBuilder and BodyLanguage model FoxedUp or BRILLIANT.MOD
:root
   order TX TY TZ RX RY RZ
   axis XYZ
   position 0 0 0  
   orientation 0 0 0 
:bonedata
  begin
     id 1 
     name lhipjoint
     direction 0.646657 -0.683706 0.338203 
     length 2.4948 
     axis 0 0 0  XYZ
  end
  begin
     id 2 
     name lfemur
     direction 0.34202 -0.939693 0  
     length 6.79491  
     axis 0 0 20  XYZ
    dof rx ry rz
    limits (-160.0 20.0)
           (-70.0 70.0)
           (-60.0 70.0)
  end
  begin
     id 3 
     name ltibia
     direction 0.34202 -0.939693 0   
     length 7.56807   
     axis 0 0 20   XYZ
    dof rx
    limits (-10.0 170.0)
  end
  begin
     id 4 
     name lfoot
     direction 0.0679796 -0.186772 0.980048   
     length 2.53018   
     axis -90 7.62852e-016 20   XYZ
    dof rx rz
    limits (-45.0 90.0)
           (-70.0 20.0)
  end
  begin
     id 5 
     name ltoes
     direction 1.53625e-011 -4.21881e-011 1   
     length 1.26912   
     axis -90 7.62852e-016 20   XYZ
    dof rx
    limits (-90.0 20.0)
  end
  begin
     id 6 
     name rhipjoint
     direction -0.618868 -0.704065 0.348274   
     length 2.42265  
     axis 0 0 0  XYZ 
  end
  begin
     id 7 
     name rfemur
     direction -0.34202 -0.939693 0   
     length 6.73814   
     axis 0 0 -20   XYZ
    dof rx ry rz
    limits (-160.0 20.0)
           (-70.0 70.0)
           (-70.0 60.0)
  end
  begin
     id 8 
     name rtibia
     direction -0.34202 -0.939693 0   
     length 7.66799   
     axis 0 0 -20   XYZ
    dof rx
    limits (-10.0 170.0)
 end
 begin
     id 9 
     name rfoot
     direction -0.0727352 -0.199838 0.977125   
     length 2.57224  
     axis -90 -7.62852e-016 -20   XYZ
    dof rx rz
    limits (-45.0 90.0)
           (-20.0 70.0)
  end
  begin
     id 10 
     name rtoes
     direction -1.53501e-011 -4.21858e-011 1   
     length 1.28858   
     axis -90 -7.62852e-016 -20   XYZ
    dof rx
    limits (-90.0 20.0)
  end
  begin
     id 11 
     name lowerback
     direction -0.0172471 0.995767 -0.0902851   
     length 2.20206   
     axis 0 0 0   XYZ
    dof rx ry rz
    limits (-20.0 45.0)
           (-30.0 30.0)
           (-30.0 30.0)
  end
  begin
     id 12 
     name upperback
     direction -0.000110737 0.999714 0.0239043   
     length 2.19523   
     axis 0 0 0   XYZ
    dof rx ry rz
    limits (-20.0 45.0)
           (-30.0 30.0)
           (-30.0 30.0)
  end
  begin
     id 13 
     name thorax
     direction 0.00704869 0.997783 0.0661741   
     length 2.21977   
     axis 0 0 0   XYZ
    dof rx ry rz
    limits (-20.0 45.0)
           (-30.0 30.0)
           (-30.0 30.0)
  end
  begin
     id 14 
     name lowerneck
     direction -0.00407501 0.995527 0.0943846   
     length 1.83142   
     axis 0 0 0   XYZ
    dof rx ry rz
    limits (-20.0 45.0)
           (-30.0 30.0)
           (-30.0 30.0)
  end
  begin
     id 15 
     name upperneck
     direction 0.0640586 0.986486 -0.150807   
     length 1.84616   
     axis 0 0 0   XYZ
    dof rx ry rz
    limits (-20.0 45.0)
           (-30.0 30.0)
           (-30.0 30.0)
  end
  begin
     id 16
     name head
     direction 0.0188017 0.99791 -0.0618239  
     length 1.85932  
     axis 0 0 0   XYZ
    dof rx ry rz
    limits (-20.0 45.0)
           (-30.0 30.0)
           (-30.0 30.0)
  end
  begin
     id 17 
     name lclavicle
     direction 0.976074 0.206905 0.066852  
     length 3.81043  
     axis 0 0 0   XYZ
    dof ry rz
    limits (-20.0 10.0)
           (0.0 20.0)
  end
  begin
     id 18 
     name lhumerus
     direction 1 -4.48971e-011 1.86916e-027   
     length 5.37587   
     axis 180 -30 -90   XYZ
    dof rx ry rz
    limits (-60.0 90.0)
           (-90.0 90.0)
           (-90.0 90.0)
  end
  begin
     id 19
     name lradius
     direction 1 -4.48968e-011 1.69187e-027   
     length 3.35977   
     axis 180 -30 -90   XYZ
    dof rx
    limits (-10.0 170.0)
  end
  begin
     id 20
     name lwrist
     direction 1 -4.48968e-011 5.8978e-027   
     length 1.67988   
     axis -3.27506e-015 90 90   XYZ
    dof ry
    limits (-180.0 0.0)
 end
  begin
     id 21 
     name lhand
     direction 1 -4.49028e-011 1.18071e-026   
     length 0.561859   
     axis -7.52654e-015 90 90   XYZ
    dof rx rz
    limits (-90.0 90.0)
           (-45.0 45.0)
  end
  begin
     id 22 
     name lfingers
     direction 1 -4.48927e-011 2.35758e-026   
     length 0.452985   
     axis -1.50534e-014 90 90   XYZ
    dof rx
    limits (0.0 90.0)
  end
  begin
     id 23
     name lthumb
     direction 0.707107 -6.34898e-011 0.707107   
     length 0.650399   
     axis -90 45 5.69224e-014   XYZ
    dof rx rz
    limits (-45.0 45.0)
           (-45.0 45.0)
  end
  begin
     id 24 
     name rclavicle
     direction -0.988403 0.151789 0.00439714   
     length 3.6942  
     axis 0 0 0   XYZ 
    dof ry rz
    limits (-10.0 20.0)
           (-20.0 0.0)
  end
  begin
     id 25 
     name rhumerus
     direction -1 -4.48978e-011 1.62495e-027  
     length 5.22819   
     axis 180 30 90   XYZ
    dof rx ry rz
    limits (-90.0 60.0)
           (-90.0 90.0)
           (-90.0 90.0)
  end
  begin
     id 26 
     name rradius
     direction -1 -4.48961e-011 3.47796e-027   
     length 3.40764   
     axis 180 30 90   XYZ
    dof rx
    limits (-10.0 170.0)
  end
  begin
     id 27 
     name rwrist
     direction -1 -4.48949e-011 5.89602e-027   
     length 1.70382   
     axis -3.27506e-015 -90 -90   XYZ
    dof ry
    limits (-180.0 0.0)
  end
  begin
     id 28
     name rhand
     direction -1 -4.48977e-011 1.17973e-026   
     length 0.583255   
     axis -7.52654e-015 -90 -90   XYZ
    dof rx rz
    limits (-90.0 90.0)
           (-45.0 45.0)
  end
  begin
     id 29
     name rfingers
     direction -1 -4.49099e-011 2.36408e-026   
     length 0.470235   
     axis -1.50534e-014 -90 -90   XYZ
    dof rx
    limits (0.0 90.0)
  end
  begin
     id 30
     name rthumb
     direction -0.707107 -6.35011e-011 0.707107   
     length 0.675167   
     axis -90 -45 -5.69224e-014   XYZ
    dof rx rz
    limits (-45.0 45.0)
           (-45.0 45.0)
  end
:hierarchy
  begin
    root lhipjoint rhipjoint lowerback
    lhipjoint lfemur
    lfemur ltibia
    ltibia lfoot
    lfoot ltoes
    rhipjoint rfemur
    rfemur rtibia
    rtibia rfoot
    rfoot rtoes
    lowerback upperback
    upperback thorax
    thorax lowerneck lclavicle rclavicle
    lowerneck upperneck
    upperneck head
    lclavicle lhumerus
    lhumerus lradius
    lradius lwrist
    lwrist lhand lthumb
    lhand lfingers
    rclavicle rhumerus
    rhumerus rradius
    rradius rwrist
    rwrist rhand rthumb
    rhand rfingers
  end

#!OML:ASF G:\JayActor3\Patient Classification 1\Patient 1\Session 2\male.ASF
:FULLY-SPECIFIED
:DEGREES
59
root 46.1964 16.496 -7.28544 40.3103 -87.0883 -38.3207
lowerback -4.57021 -0.705523 -0.685388
upperback 3.79012 -0.99691 1.20062
thorax 6.5457 -0.568158 1.53383
lowerneck -3.87424 -10.5884 -9.70247
upperneck 0.0547659 -14.2205 14.6552
head 2.42673 -6.97328 5.30912
rclavicle -9.28076e-015 1.78906e-015
rhumerus -25.8303 -8.36531 -85.6054
rradius 24.1356
rwrist 1.61719
rhand -22.1022 6.78315
rfingers 7.12502
rthumb 4.31005 -23.153
lclavicle -9.28076e-015 1.78906e-015
lhumerus -26.1154 5.83565 88.7762
lradius 25.7059
lwrist 8.89658
lhand -20.1409 17.7049
lfingers 7.12502
lthumb 6.2038 47.5941
rfemur -14.251 -1.86218 23.9818
rtibia 38.9566
rfoot -29.2032 -9.56226
rtoes 19.9196
lfemur -10.1916 2.93062 -20.1033
ltibia 31.0993
lfoot -21.7893 13.5832
ltoes -4.89083
60
root 46.1954 16.496 -7.28553 40.5067 -87.0874 -38.5144
lowerback -4.59086 -0.703361 -0.673001
upperback 3.78966 -0.994804 1.19984
thorax 6.5568 -0.566536 1.52607
lowerneck -3.86293 -10.5924 -9.70494
upperneck 0.0399278 -14.225 14.6549
head 2.42121 -6.97633 5.31003
rclavicle -3.73964e-015 -6.16232e-015
rhumerus -25.8392 -8.39162 -85.6062
rradius 24.1226
rwrist 1.63013
rhand -22.1047 6.79006
rfingers 7.12502
rthumb 4.30762 -23.1461
lclavicle -3.73964e-015 -6.16232e-015
lhumerus -26.1325 5.84035 88.7773
lradius 25.7248
lwrist 8.91634
lhand -20.1311 17.7149
lfingers 7.12502
lthumb 6.21329 47.6038
rfemur -14.2486 -1.86707 23.989
rtibia 38.951
rfoot -29.197 -9.55331
rtoes 19.9228
lfemur -10.1909 2.9079 -20.0984
ltibia 31.103
lfoot -21.8047 13.6075
ltoes -4.87527
61
root 46.1944 16.496 -7.28566 40.6921 -87.0881 -38.6987
lowerback -4.60974 -0.700582 -0.660884
upperback 3.78878 -0.991721 1.1971
thorax 6.56638 -0.564374 1.51653
lowerneck -3.85387 -10.5957 -9.70632
upperneck 0.0367926 -14.2296 14.6527
head 2.41927 -6.97904 5.30978
rclavicle 3.75827e-015 3.57812e-015
rhumerus -25.8474 -8.4247 -85.6083
rradius 24.11
rwrist 1.64084
rhand -22.1013 6.78793
rfingers 7.12502
rthumb 4.31095 -23.1482
lclavicle 3.75827e-015 3.57812e-015
lhumerus -26.1478 5.8518 88.7734
lradius 25.7372
lwrist 8.92985
lhand -20.1265 17.7185
lfingers 7.12502
lthumb 6.2177 47.6073
rfemur -14.2444 -1.87126 23.995
rtibia 38.9461
rfoot -29.192 -9.54191
rtoes 19.9318
lfemur -10.1886 2.89546 -20.0933
ltibia 31.1066
lfoot -21.8173 13.6229
ltoes -4.86219
62
root 46.1936 16.496 -7.28585 40.845 -87.089 -38.8526
lowerback -4.6269 -0.698596 -0.651402
upperback 3.78877 -0.989543 1.19449
thorax 6.57596 -0.562799 1.50855
lowerneck -3.85062 -10.599 -9.70631
upperneck 0.04517 -14.2347 14.6442
head 2.42111 -6.98151 5.30679
rclavicle 7.00095e-015 1.25234e-014
rhumerus -25.853 -8.45951 -85.6101
rradius 24.0961
rwrist 1.65288
rhand -22.0979 6.79006
rfingers 7.12502
rthumb 4.3142 -23.146
lclavicle 7.00095e-015 1.25234e-014
lhumerus -26.16 5.8732 88.7668
lradius 25.746
lwrist 8.93742
lhand -20.1254 17.7254
lfingers 7.12502
lthumb 6.21875 47.6141
rfemur -14.2386 -1.87448 24.0002
rtibia 38.9424
rfoot -29.1887 -9.53275
rtoes 19.9376
lfemur -10.1849 2.89169 -20.0881
ltibia 31.1091
lfoot -21.8222 13.6344
ltoes -4.87114
63
root 46.1929 16.496 -7.28605 40.985 -87.0907 -38.9959
lowerback -4.64197 -0.697432 -0.643784
upperback 3.7912 -0.988424 1.19218
thorax 6.58701 -0.561886 1.50181
lowerneck -3.85807 -10.6026 -9.70434
upperneck 0.0637355 -14.24 14.63
head 2.42711 -6.98347 5.30094
rclavicle -3.03147e-015 5.46658e-016
rhumerus -25.8516 -8.49362 -85.6131
rradius 24.0822
rwrist 1.66342
rhand -22.0923 6.78728
rfingers 7.12502
rthumb 4.3196 -23.1487
lclavicle -3.03147e-015 5.46658e-016
lhumerus -26.1663 5.90638 88.7572
lradius 25.7493
lwrist 8.93683
lhand -20.1271 17.7273
lfingers 7.12502
lthumb 6.21709 47.6161
rfemur -14.2316 -1.87751 24.0046
rtibia 38.9398
rfoot -29.1852 -9.52671
rtoes 19.9343
lfemur -10.1789 2.8936 -20.0827
ltibia 31.1105
lfoot -21.8251 13.6406
ltoes -4.87749
64
root 46.1922 16.4959 -7.28638 41.0735 -87.0932 -39.0909
lowerback -4.65486 -0.696569 -0.640505
upperback 3.79394 -0.987353 1.18933
thorax 6.5972 -0.561184 1.49697
lowerneck -3.86022 -10.6072 -9.69875
upperneck 0.0828724 -14.247 14.6106
head 2.43194 -6.98651 5.29315
rclavicle 6.4605e-015 -4.5472e-015
rhumerus -25.851 -8.53025 -85.6159
rradius 24.0684
rwrist 1.677
rhand -22.0859 6.79139
rfingers 7.12502
rthumb 4.32582 -23.1444
lclavicle 6.4605e-015 -4.5472e-015
lhumerus -26.1736 5.94352 88.7452
lradius 25.752
lwrist 8.93109
lhand -20.1302 17.7329
lfingers 7.12502
lthumb 6.21409 47.6218
rfemur -14.2214 -1.87582 24.0079
rtibia 38.938
rfoot -29.1864 -9.52475
rtoes 19.9341
lfemur -10.1698 2.90203 -20.0781
ltibia 31.1111
lfoot -21.8235 13.6395
ltoes -4.89205
